<svg xmlns="http://www.w3.org/2000/svg" width="245" height="165" viewBox="0 0 245 165"><defs><style>.a{fill:red;}</style></defs><title>hall-logo-stacked</title><path d="M11.06,162.71a8.59,8.59,0,0,1-4.88-1.5,10.22,10.22,0,0,1-3.52-4.14l1.64-.8a8.58,8.58,0,0,0,2.84,3.4,6.8,6.8,0,0,0,3.92,1.2,7,7,0,0,0,5.68-2.64c1.63-1.94,2.44-4.64,2.44-8.08V136.43H21v13.72q0,5.85-2.84,9.28A8.82,8.82,0,0,1,15,161.87,9.29,9.29,0,0,1,11.06,162.71Z"/><path d="M30.1,155.83,27,162.43H25l12.24-26.32,11.56,26.32h-2l-2.92-6.6Zm7.08-15.28L30.94,154h12.2Z"/><path d="M70.76,152.37a5.64,5.64,0,0,1,1,3.22,5.86,5.86,0,0,1-.72,2.82A6.88,6.88,0,0,1,69,160.75a10.89,10.89,0,0,1-6.52,2,11.71,11.71,0,0,1-3.52-.52,10,10,0,0,1-3-1.48,6.63,6.63,0,0,1-2.76-4.12l1.72-1a4.52,4.52,0,0,0,2.16,3.6,7.36,7.36,0,0,0,2.44,1.22,10.23,10.23,0,0,0,3,.42,8.75,8.75,0,0,0,5.4-1.64A4.51,4.51,0,0,0,70,155.59a3.9,3.9,0,0,0-.78-2.32A6.45,6.45,0,0,0,67,151.43a15.53,15.53,0,0,0-4.72-1.08c-.19,0-.86-.13-2-.32a10.59,10.59,0,0,1-3-.88,7.93,7.93,0,0,1-3.08-2.54,5.76,5.76,0,0,1-1.12-3.42,5.59,5.59,0,0,1,.74-2.78,7.45,7.45,0,0,1,2.1-2.3,10.25,10.25,0,0,1,3-1.48,12,12,0,0,1,3.52-.52,11,11,0,0,1,6.52,2,6.55,6.55,0,0,1,2.72,4.08l-1.72,1a4.15,4.15,0,0,0-.58-1.92,5.89,5.89,0,0,0-1.54-1.68,8.09,8.09,0,0,0-2.48-1.22,10.11,10.11,0,0,0-2.92-.42,10.34,10.34,0,0,0-2.94.42,7.46,7.46,0,0,0-2.46,1.22,5.94,5.94,0,0,0-1.6,1.7,3.8,3.8,0,0,0-.56,1.94,4.07,4.07,0,0,0,.92,2.46,6.25,6.25,0,0,0,2.28,1.9,7.1,7.1,0,0,0,1.86.58c.68.12,1.55.25,2.62.38l1.4.2a20.11,20.11,0,0,1,2.16.44,8,8,0,0,1,4.62,3.22Z"/><path d="M89.86,162.71a12.82,12.82,0,0,1-6.6-1.78,13,13,0,0,1-4.8-4.84,13.34,13.34,0,0,1,4.8-18.16,13.13,13.13,0,0,1,18,4.84,13.48,13.48,0,0,1,0,13.32,13,13,0,0,1-4.8,4.84A12.82,12.82,0,0,1,89.86,162.71Zm0-24.72a11,11,0,0,0-5.68,1.54A11.7,11.7,0,0,0,80,143.69a11.47,11.47,0,0,0,0,11.48,11.55,11.55,0,0,0,4.14,4.16,11.24,11.24,0,0,0,11.36,0,11.54,11.54,0,0,0,4.12-15.64,11.49,11.49,0,0,0-4.12-4.16A11,11,0,0,0,89.86,138Z"/><path d="M110.66,141.31v21.12h-1.8V136.11l18,21.52v-21.2h1.8v26.44Z"/><path d="M164.38,151.51h-11v10.92H148.9V136.11h4.48V147h11V136.11h4.48l0,26.32h-4.52Z"/><path d="M180.66,158.83l-1.68,3.6h-5l12.2-26.32,11.6,26.32H192.9l-1.6-3.6ZM186.1,147l-3.36,7.28h6.56Z"/><path d="M202.9,162.43V136.11h4.52V158h12.12v4.48Z"/><path d="M225.7,162.43V136.11h4.52V158h12.12v4.48Z"/><path class="a" d="M169.36,27.39,127.17,3a6.74,6.74,0,0,0-6.78,0L85,23.48l46.93,27.77a3,3,0,0,1,1.47,2.58V86l16.38-8.49V64.87a2,2,0,0,1,1.09-1.5l6.82-3.49c.57-.29,1.08-.11,1.08.39V94l10.6-6.12A6.79,6.79,0,0,0,172.75,82V33.27A6.8,6.8,0,0,0,169.36,27.39Z"/><path class="a" d="M92.83,93.32c-.33-.73-.27-1.37.13-1.63l4.53-2.09c.54-.19,1.27.14,1.8,1a8.46,8.46,0,0,0,3.4,3.27c1.86,1,3.93.38,3.93-3V46.52L76.32,29a6.77,6.77,0,0,0-1.51,4.26V82a6.77,6.77,0,0,0,3.39,5.87L96.29,98.3A30.21,30.21,0,0,1,92.83,93.32Z"/><path class="a" d="M124.4,58.52a3,3,0,0,0-1.5-2.6l-5.62-3.25V96.75c0,6.61-3.29,9.45-8,9.06l11.08,6.4a6.75,6.75,0,0,0,4,.86Z"/><polygon class="a" points="133.39 108.61 149.77 99.16 149.77 84.87 133.39 93.41 133.39 108.61"/></svg>