<svg xmlns="http://www.w3.org/2000/svg" width="105" height="115" viewBox="0 0 105 115"><defs><style>.a{fill:red;}</style></defs><title>hall-logomark</title><path class="a" d="M97.86,27.39,55.67,3a6.74,6.74,0,0,0-6.78,0L13.48,23.48,60.41,51.25a3,3,0,0,1,1.47,2.58V86L78.27,77.5V64.87a2,2,0,0,1,1.09-1.5l6.82-3.49c.57-.29,1.08-.11,1.08.39V94l10.6-6.12A6.79,6.79,0,0,0,101.25,82V33.27A6.8,6.8,0,0,0,97.86,27.39Z"/><path class="a" d="M21.33,93.32c-.33-.73-.27-1.37.13-1.63L26,89.6c.54-.19,1.27.14,1.8,1a8.46,8.46,0,0,0,3.4,3.27c1.86,1,3.93.38,3.93-3V46.52L4.82,29a6.77,6.77,0,0,0-1.51,4.26V82A6.77,6.77,0,0,0,6.7,87.85L24.79,98.3A30.21,30.21,0,0,1,21.33,93.32Z"/><path class="a" d="M52.9,58.52a3,3,0,0,0-1.5-2.6l-5.62-3.25V96.75c0,6.61-3.29,9.45-8,9.06l11.08,6.4a6.75,6.75,0,0,0,4,.86Z"/><polygon class="a" points="61.89 108.61 78.27 99.16 78.27 84.87 61.89 93.41 61.89 108.61"/></svg>